<?xml version="1.0" standalone="no"?><!DOCTYPE svg PUBLIC "-//W3C//DTD SVG 1.1//EN" "http://www.w3.org/Graphics/SVG/1.1/DTD/svg11.dtd"><svg t="1529889080842" class="icon" style="" viewBox="0 0 1024 1024" version="1.1" xmlns="http://www.w3.org/2000/svg" p-id="3965" xmlns:xlink="http://www.w3.org/1999/xlink" width="18" height="18"><defs><style type="text/css"></style></defs><path d="M64.2887 526.510482l0-28.009937c0.255827-1.961678 0.521886-3.924379 0.760317-5.886057 2.851954-23.620977 4.167926-47.549969 8.832156-70.811766 14.083763-70.287833 43.99705-133.49848 88.957031-189.413977 48.498574-60.322877 108.580974-105.307418 180.201152-134.699842 42.823318-17.572214 87.363743-28.181853 133.581368-31.546483 7.624654-0.554632 15.242146-1.221828 22.864754-1.837858l25.00858 0c2.300392 0.265036 4.594645 0.680499 6.903224 0.769526 40.860617 1.629103 80.751139 8.746198 119.567189 21.526269 82.522482 27.16571 151.679561 74.249051 206.785623 141.312446 58.518788 71.213925 91.907223 153.003719 100.166327 244.948805 3.841491 42.791595 1.497097 85.23936-6.865361 127.334083-9.788947 49.266054-27.447119 95.578846-53.03796 138.808416-42.437531 71.684646-100.252285 127.659495-173.500543 167.203116-75.265194 40.634466-155.896606 57.843406-241.326301 52.55496-43.024909-2.663666-84.96102-10.900258-125.158535-26.301016-124.022665-47.52848-211.67191-132.775003-262.123976-255.745708-16.795525-40.937364-26.38288-83.73817-29.724998-127.897925C65.613882 541.375028 64.921103 533.944801 64.2887 526.510482L64.2887 526.510482zM512.174474 904.395972c217.750349-0.727571 392.276245-176.013783 392.001999-392.370389-0.274246-217.231533-175.272909-391.645888-391.82599-391.890458-216.513172-0.242524-392.081817 175.197184-392.257825 391.964136C119.921765 728.489636 295.690978 904.360156 512.174474 904.395972L512.174474 904.395972zM512.174474 904.395972" p-id="3966"></path></svg>