<?xml version="1.0" standalone="no"?><!DOCTYPE svg PUBLIC "-//W3C//DTD SVG 1.1//EN" "http://www.w3.org/Graphics/SVG/1.1/DTD/svg11.dtd"><svg t="1529889040357" class="icon" style="" viewBox="0 0 1024 1024" version="1.1" xmlns="http://www.w3.org/2000/svg" p-id="3697" xmlns:xlink="http://www.w3.org/1999/xlink" width="18" height="18"><defs><style type="text/css"></style></defs><path d="M902.788357 511.431042c0 216.188784-175.25142 391.440204-391.411551 391.440204-216.189807 0-391.44225-175.252443-391.44225-391.440204 0-216.159108 175.252443-391.411551 391.44225-391.411551L511.376807 64.089667c-247.060909 0-447.340351 200.280466-447.340351 447.340351S264.316921 958.769346 511.37783 958.769346s447.339328-200.279443 447.339328-447.338305L902.788357 511.431042z" p-id="3698"></path><path d="M459.45425 574.540382l55.898101 0c0-216.159108 131.827421-305.272705 348.017228-305.272705l6.78145-7.358595 10.132778-10.994402L738.168066 405.123854c-5.26491 5.634324-4.941546 14.476713 0.691755 19.7406l20.432355 19.0908c5.633301 5.263887 14.477736 4.986571 19.742646-0.648776l152.712077-163.444513 19.091824-20.433378c5.263887-5.633301 4.962012-14.499226-0.671289-19.763113l-20.432355-19.0908L766.28852 67.862597c-5.633301-5.263887-14.498202-4.962012-19.761066 0.671289l-19.091824 20.433378c-5.263887 5.634324-4.964058 14.498202 0.669242 19.762089l114.701368 107.169835C595.746356 215.899188 459.45425 327.480496 459.45425 574.540382z" p-id="3699"></path></svg>